<?xml version="1.0" encoding="UTF-8"?>
<svg xmlns="http://www.w3.org/2000/svg" viewBox="0 0 742.42 961.78">
  <path fill="none" stroke="#000000" stroke-miterlimit="10" stroke-width="10" d="M368.12,5.01c4.21-.39,13.58,9.38,17.35,12.21,118.54,89,338.91,68.51,351.95,258.05v412.1c-13.31,179.27-227.29,166.12-338.96,251.04-5.56,4.23-18.61,18.09-24.67,18.36-6.94.3-21.3-14.69-27.5-19.36C236.88,855.05,19.31,864.02,7.33,688.37c-3.54-51.85.28-108.28.12-161.03-.25-77.84-4.61-160.27-1.06-238C14.64,108.64,172.39,109.51,300.06,49.01c15.71-7.44,31.27-16.45,45.24-26.76,4.77-3.52,18.35-16.82,22.84-17.23h-.02Z"/>
</svg>
